#define 1522574153288_width 32
#define 1522574153288_height 32
static char 1522574153288_bits[] = {
  0x00, 0xC0, 0x03, 0x00, 0x00, 0xC0, 0x03, 0x00, 0x00, 0xC0, 0x03, 0x00, 
  0x00, 0xC0, 0x03, 0x00, 0x00, 0xE0, 0x07, 0x00, 0x00, 0xF8, 0x1F, 0x00, 
  0x00, 0xFE, 0x7F, 0x00, 0x00, 0xDF, 0xFB, 0x00, 0x80, 0x07, 0xE0, 0x01, 
  0xC0, 0x03, 0xC0, 0x03, 0xC0, 0x01, 0x80, 0x07, 0xE0, 0x00, 0x00, 0x07, 
  0xE0, 0xC0, 0x03, 0x07, 0x70, 0xE0, 0x07, 0x0E, 0xFF, 0xF3, 0xCF, 0xFF, 
  0xFF, 0x73, 0xCE, 0xFF, 0xFF, 0x73, 0xCE, 0xFF, 0xFF, 0xF3, 0xCF, 0xFF, 
  0x70, 0xE0, 0x07, 0x0E, 0xE0, 0xC0, 0x03, 0x07, 0xE0, 0x00, 0x00, 0x07, 
  0xC0, 0x01, 0x80, 0x07, 0xC0, 0x03, 0xC0, 0x03, 0x80, 0x07, 0xE0, 0x01, 
  0x00, 0xDF, 0xFB, 0x00, 0x00, 0xFE, 0x7F, 0x00, 0x00, 0xFC, 0x3F, 0x00, 
  0x00, 0xE0, 0x07, 0x00, 0x00, 0xC0, 0x03, 0x00, 0x00, 0xC0, 0x03, 0x00, 
  0x00, 0xC0, 0x03, 0x00, 0x00, 0xC0, 0x03, 0x00, };
